<?xml version="1.0" encoding="UTF-8" standalone="no"?>
<!-- Created with Inkscape (http://www.inkscape.org/) -->

<svg
   width="207.4668mm"
   height="238.75806mm"
   viewBox="0 0 207.4668 238.75806"
   version="1.1"
   id="svg1"
   xml:space="preserve"
   inkscape:version="1.4-beta2 (9aaf4f3498, 2024-07-30)"
   sodipodi:docname="WolfTechLabs Logo Final.svg"
   xmlns:inkscape="http://www.inkscape.org/namespaces/inkscape"
   xmlns:sodipodi="http://sodipodi.sourceforge.net/DTD/sodipodi-0.dtd"
   xmlns="http://www.w3.org/2000/svg"
   xmlns:svg="http://www.w3.org/2000/svg"><sodipodi:namedview
     id="namedview1"
     pagecolor="#505050"
     bordercolor="#ffffff"
     borderopacity="1"
     inkscape:showpageshadow="0"
     inkscape:pageopacity="0"
     inkscape:pagecheckerboard="1"
     inkscape:deskcolor="#505050"
     inkscape:document-units="mm"
     inkscape:zoom="0.76473282"
     inkscape:cx="472.71412"
     inkscape:cy="460.9453"
     inkscape:window-width="1920"
     inkscape:window-height="974"
     inkscape:window-x="1909"
     inkscape:window-y="-11"
     inkscape:window-maximized="1"
     inkscape:current-layer="layer1"
     showgrid="false" /><defs
     id="defs1" /><g
     inkscape:label="Layer 1"
     inkscape:groupmode="layer"
     id="layer1"
     transform="translate(-1.6179405,-30.335039)"><path
       sodipodi:type="star"
       style="fill:#ffffff;stroke-width:0.264583"
       id="path3"
       inkscape:flatsided="true"
       sodipodi:sides="6"
       sodipodi:cx="147.27676"
       sodipodi:cy="131.61945"
       sodipodi:r1="114.00599"
       sodipodi:r2="98.732086"
       sodipodi:arg1="1.5707963"
       sodipodi:arg2="2.0943951"
       inkscape:rounded="1.0755286e-16"
       inkscape:randomized="0"
       d="m 147.27677,245.62543 -98.732087,-57.00299 -3e-6,-114.005986 98.73208,-57.002997 98.73209,57.002992 0,114.005991 z"
       transform="matrix(1.046489,0,0,1.046489,-48.739472,11.90275)" /><path
       style="opacity:1;fill:#390039;fill-opacity:1;stroke:#000000;stroke-width:4.7693;stroke-opacity:1"
       d="M 202.35826,902.5455 8.4997006,790.50949 V 565.56166 340.61383 L 200.84974,229.47791 c 105.79253,-61.12476 193.68829,-111.66407 195.32393,-112.30959 2.54219,-1.00329 31.18766,15.11459 197.32854,111.03042 l 194.35466,112.2041 V 565.56291 790.72299 L 593.86424,902.72824 c -106.69595,61.60289 -194.81496,111.97106 -195.82003,111.92926 -1.00507,-0.042 -89.06375,-50.49221 -195.68595,-112.112 z"
       id="path2"
       transform="scale(0.26458333)" /><path
       style="fill:#a6a6a6;fill-opacity:1;stroke:none"
       d="M 21.127086,185.39877 H 2.6062525 v 4.7625 H 62.666669 79.599998 c 1.82996,0 5.13916,0.64286 6.79608,-0.15964 1.1628,-0.56318 1.57268,-4.2042 1.89516,-5.39661 1.36333,-5.04105 1.52227,-9.99733 -1.42786,-14.55208 -1.054,-1.62729 -2.57292,-2.78724 -3.82379,-4.23333 2.97234,0.88057 5.87477,0.98211 8.73125,2.44984 8.732492,4.48699 9.789582,13.14212 9.789582,21.89182 0.96988,0 3.2903,0.50445 4.07368,-0.031 1.62804,-1.11282 -0.18784,-6.29578 0.54613,-8.01875 1.08435,-2.54549 3.61195,-4.84173 5.01665,-7.29605 5.98222,-10.45229 7.85444,-25.52596 4.03368,-37.04166 -0.89599,-2.70049 -2.102,-8.07073 -4.51303,-9.80572 -0.91984,-0.66193 -2.52021,-0.46911 -3.60086,-0.50364 -2.90477,-0.0928 -5.82495,-0.009 -8.731252,-0.009 l 4.308672,-5.29167 1.29208,-2.33633 -2.69034,-2.69075 h -0.26458 c -4.592692,5.27368 -8.905282,10.79893 -13.421082,16.13958 -1.69513,2.00476 -3.40932,5.2083 -5.67404,6.57763 -2.74014,1.65679 -8.415826,2.16508 -11.596543,2.4182 0.04247,0.9746 0.100689,3.32795 0.952381,3.95753 0.758691,0.56083 2.44436,-0.0399 3.280953,-0.20131 2.97217,-0.57332 6.760309,-0.81285 9.523979,-2.0401 4.75599,-2.11197 6.18168,-9.77717 10.84995,-12.02364 1.62889,-0.78386 5.282512,-0.0112 7.142732,-0.0112 1.66432,0 5.17658,-0.69213 6.25691,0.83295 3.05569,4.31368 3.54214,10.00001 4.13739,15.04205 0.20409,1.72876 0.75026,4.70923 -0.15965,6.29366 -0.79625,1.3865 -3.31629,2.06752 -4.6784,2.77057 -3.15205,1.6269 -6.33822,3.19188 -9.524992,4.75862 -1.2819,0.63023 -3.07283,1.80929 -4.49792,1.93987 -1.33049,0.12191 -2.94901,-0.90233 -4.23333,-1.24125 -3.09156,-0.81584 -6.59518,-1.41436 -9.78959,-0.91155 -5.605581,0.88234 -11.423992,4.01089 -16.668746,6.12911 -1.868781,0.75475 -4.049623,2.18567 -6.085416,2.33673 -1.311516,0.0973 -2.767709,-0.81355 -3.96875,-1.25799 -3.184875,-1.17855 -6.356758,-2.39766 -9.525,-3.61985 3.244884,-4.24695 6.1335,-8.92031 7.408333,-14.2875 h -6.085416 c 4.863583,-5.9747 13.519297,-8.63068 18.406305,-14.59802 3.006793,-3.67147 1.009612,-10.50073 3.516339,-14.49573 1.741754,-2.77586 5.700362,-5.11105 8.239855,-7.15397 5.562886,-4.47515 10.967336,-9.19704 16.668746,-13.49395 l -0.52916,4.23334 4.49791,0.79375 c 1.70566,-7.144714 2.85992,-15.679514 3.175,-23.018746 h 0.26459 l 8.298842,17.462506 0.16782,8.46665 -5.82083,-4.49791 -2.645832,3.70416 c 3.701982,2.44838 7.092262,5.54546 10.583332,8.29171 7.04779,5.54416 14.02291,11.02282 20.37291,17.37288 l -11.90625,-2.11667 c 1.12712,2.16782 3.23341,3.92108 4.76231,5.82083 3.46859,4.30994 6.9332,9.33386 8.20228,14.81667 l -8.73125,-5.82084 c 2.06764,10.02283 2.82754,19.04013 -2.34471,28.31042 -2.94686,5.28172 -8.66572,9.74514 -10.35529,15.61042 1.50294,-0.35783 3.63576,0.27773 4.97176,-0.37238 1.94243,-0.94521 3.94753,-4.77313 5.24777,-6.50679 6.47887,-8.63849 8.57289,-16.68251 8.56588,-27.25208 l 9.26042,6.35 c -0.37469,-8.72773 -3.69727,-17.00776 -8.20208,-24.34167 l 11.1125,1.85208 c -1.02694,-2.70854 -3.41737,-5.23255 -5.29167,-7.40833 -4.6116,-5.35337 -10.11521,-9.87372 -15.61042,-14.2877 -2.24434,-1.80275 -5.28016,-3.56108 -7.05964,-5.83105 -0.86473,-1.10308 -0.61327,-2.64173 -0.61327,-3.95833 0,-2.89364 0.4131,-6.14386 -0.087,-8.995824 -1.01265,-5.775215 -5.60063,-11.529402 -7.85052,-16.933335 6.88994,6.019238 13.78819,12.402698 17.08542,21.166659 0.89186,2.37054 1.41437,4.88914 1.65508,7.40833 0.11587,1.21254 -0.34789,3.04328 0.20456,4.1482 0.49195,0.98389 3.60958,0.34972 4.60285,0.34972 l -1.32291,-11.1125 c 7.51252,4.36826 16.01829,6.95513 22.75416,12.7 l -11.64166,1.05833 v 0.26459 c 7.65685,4.0761 15.43434,9.04322 21.69481,15.07104 2.17571,2.09485 4.83167,4.26091 6.35102,6.88937 l -12.43542,-2.64583 c 2.82659,5.4487 8.46047,9.86943 11.88542,15.08125 2.30848,3.51288 4.47021,7.06123 6.30244,10.84791 0.9228,1.90715 1.44544,4.60337 2.73688,6.26589 0.89601,1.15345 3.69506,0.61328 5.00443,0.61328 -2.18115,-9.20417 -8.33614,-18.29171 -14.02292,-25.66458 l 11.37709,2.11666 c -1.27783,-3.03784 -3.96706,-5.94322 -6.06439,-8.46666 -5.06943,-6.09935 -11.59253,-13.34461 -18.80645,-16.93333 v -0.26504 l 9.78959,-0.79375 c -1.80579,-2.23248 -4.58863,-3.93729 -6.87917,-5.65506 -6.498,-4.87311 -13.65832,-8.65172 -20.90208,-12.27128 -2.79896,-1.39858 -6.81682,-2.19547 -9.20408,-4.202904 -2.1471,-1.80549 -3.47651,-5.513293 -5.25941,-7.768662 -4.46493,-5.648137 -10.10289,-10.339614 -15.69901,-14.816667 -2.19344,-1.754818 -4.730832,-4.388798 -7.408332,-5.291666 l -1.51562,11.377083 -1.65936,11.377083 -12.43542,-9.624009 -6.879166,-4.928074 c 0.803908,6.360997 1.818203,12.706136 2.757293,19.050002 0.324302,2.190824 1.609866,6.072194 1.006883,8.191654 -0.40243,1.41453 -2.671656,2.66509 -3.764176,3.5529 -3.276011,2.66221 -8.260445,5.46433 -10.692144,8.91662 -2.750559,3.90498 -0.719369,10.5813 -3.486545,14.50472 -2.184719,3.09758 -6.879061,5.55416 -9.898394,7.82235 -6.407344,4.81335 -12.542209,10.0126 -19.049999,14.69091 1.639741,3.17774 4.761353,5.99985 7.071071,8.73125 1.262722,1.49326 2.414041,3.46136 4.045304,4.57672 2.430609,1.66191 5.973464,2.42673 8.727374,3.44509 1.937753,0.71656 5.065195,2.70774 7.14375,2.37268 7.09238,-1.14329 14.63047,-9.03514 21.960419,-5.65812 4.59448,2.11676 6.23393,7.31358 5.29065,11.93238 -0.24632,1.20613 -0.48119,3.75517 -1.87985,4.14923 -3.44895,0.97171 -8.288493,0.0482 -11.87747,0.0851 -10.133199,0.10426 -20.287222,-10e-4 -30.427082,-10e-4 -4.364583,0 -10.089896,-0.91848 -14.287501,0.26459 v -59.53125 -16.13958 c 0,-1.65698 -0.605155,-4.81633 0.271931,-6.26303 1.333802,-2.20002 6.008428,-3.6735 8.194736,-4.969094 7.536192,-4.465881 15.226897,-8.679754 22.754167,-13.16262 11.361564,-6.766383 22.931139,-13.201714 34.395829,-19.790669 3.0825,-1.771565 6.19126,-3.502014 9.260422,-5.294734 1.16915,-0.682904 2.83526,-2.136433 4.23333,-2.163418 1.88437,-0.03637 4.50588,2.294159 6.08542,3.221961 4.73409,2.780725 9.54583,5.432242 14.2875,8.201873 12.45904,7.277414 24.93084,14.660055 37.57083,21.61806 4.63261,2.550135 9.18507,5.251857 13.75833,7.906057 2.15725,1.252004 4.96898,2.344774 6.79507,4.054894 0.93999,0.8803 0.61327,2.56175 0.61327,3.7303 v 9.525 38.62916 11.37709 c 0,0.96108 -0.4232,3.29022 0.42423,3.9614 0.90199,0.71439 3.23572,0.27193 4.33827,0.27193 v -51.06458 -13.49375 l -0.27193,-5.41621 -5.28432,-3.317894 L 170.35208,90.074467 124.57917,63.764768 110.82083,55.806032 105,52.820475 l -5.820832,3.044759 -14.02292,8.049993 -46.037495,26.49793 -12.435417,7.183769 -5.284318,3.275224 -0.271932,6.47454 v 16.40417 61.64791 m 58.472912,-96.30832 9.78959,7.937496 -8.20209,6.085414 -1.32291,-9.789576 -0.26459,-4.233334 m -13.493746,51.06457 6.35,-3.19806 7.927086,-1.96498 11.12291,-11.24112 c -2.07177,-0.63693 -5.53239,0.63625 -7.67291,0.993 -2.98764,0.49794 -7.940716,0.39427 -10.533517,1.9609 -1.165449,0.7042 -1.778218,2.49354 -2.365537,3.66068 -1.577972,3.13582 -3.858372,6.4235 -4.828032,9.78958 m -21.960416,14.81667 c -0.390367,1.68656 -1.365857,5.44287 -3.436725,5.77429 -1.21262,0.19406 -4.114542,-3.29004 -3.508184,-4.40238 1.136284,-2.08445 5.017515,-1.37191 6.944909,-1.37191 m 67.733334,4.7625 c -0.56586,4.38178 -2.00907,8.88508 -4.2364,12.7 -0.85218,1.45959 -1.60428,3.20261 -3.17194,3.96875 l -6.614582,-10.05417 14.022922,-6.61458 M 11.337503,194.39461 v 4.7625 c 4.409663,0 10.312654,-1.03599 14.552083,0.16862 2.12932,0.60504 4.174883,2.17888 6.085417,3.27077 3.79456,2.1686 7.56111,4.40553 11.377083,6.53311 14.029812,7.82231 27.91065,15.943 41.804162,24.00645 4.3988,2.55294 8.812,5.07914 13.22917,7.60044 1.859912,1.06162 4.008392,2.84516 6.085412,3.38017 1.98753,0.51197 5.21222,-2.24373 6.87917,-3.1952 6.09222,-3.47741 12.22891,-6.90086 18.25625,-10.49045 13.80442,-8.22123 27.83608,-16.11437 41.80417,-24.05585 4.06687,-2.31219 8.11521,-4.6594 12.17083,-6.98736 1.41119,-0.81004 4.07845,-1.69449 5.01974,-3.04516 0.72056,-1.03397 0.27193,-3.38122 0.27193,-4.59388 v -12.17083 h 18.52083 v -4.7625 l -46.83125,0.26458 -16.93333,-0.0237 -5.02709,-0.006 -4.49791,3.92261 -11.37709,10.92733 -5.02708,4.5222 -9.525,0.23642 h -21.166663 -51.064585 -15.875 l -8.73125,-0.26458 M 184.11042,179.57794 v 9.78958 l -0.27193,4.17782 -3.16766,2.13543 -6.61458,3.81524 -25.4,14.58922 -31.22083,17.95453 -8.46667,4.91296 -3.70417,1.91211 -4.49791,-2.17384 -11.906252,-6.84222 -38.099999,-21.95734 -10.054166,-5.74959 -4.497917,-2.98473 h 57.150002 17.727082 c 2.61248,0 5.93198,0.55135 8.46666,-0.0841 2.10149,-0.52687 4.05379,-3.47346 5.55625,-4.9391 3.16974,-3.09208 6.38958,-6.12907 9.525,-9.26429 1.59773,-1.59762 3.52274,-4.00311 5.55625,-5.01974 1.11147,-0.55566 2.75999,-0.27193 3.96875,-0.27193 h 8.73125 31.22084 M 82.245838,204.18419 c 0.12226,2.80521 1.39478,5.62609 2.43433,8.20208 3.78925,9.38971 12.86008,18.86508 22.436502,22.48959 -2.00794,-10.81552 0.21347,-20.84539 1.5875,-31.48542 h -4.7625 L 101.825,226.14461 C 94.861038,221.13834 87.526958,212.36003 86.743748,203.39044 l -4.49791,0.79375"
       id="path1"
       sodipodi:nodetypes="ccccsssscscsssssscccccsscscsssssssssssssscccssscccccccccsccsccscssccccssssccssscccccsccssscccscccssssscccccsscssscssssssscsccsssssssssssssccssccccccccccccccccccccccccccsssccssccscccccsssssscssssscccccccccccccccccccccccccccccsssssscccscccccc" /></g></svg>
